<mxfile host="app.diagrams.net" modified="2024-06-25T08:07:42.650Z" agent="Mozilla/5.0 (Macintosh; Intel Mac OS X 10.15; rv:126.0) Gecko/20100101 Firefox/126.0" version="24.6.2" etag="nA6GJfxOlXV_GLx75g_Y" type="github">
  <diagram name="Page-1" id="DAifZrrzZGVBrUxy6-AY">
    <mxGraphModel>
      <root>
        <mxCell id="0" />
        <mxCell id="1" parent="0" />
      </root>
    </mxGraphModel>
  </diagram>
</mxfile>
